<?xml version="1.0" standalone="no"?>
<!DOCTYPE svg PUBLIC "-//W3C//DTD SVG 20010904//EN"
 "http://www.w3.org/TR/2001/REC-SVG-20010904/DTD/svg10.dtd">
<svg version="1.0" xmlns="http://www.w3.org/2000/svg"
 width="626.000000pt" height="418.000000pt" viewBox="0 0 626.000000 418.000000"
 preserveAspectRatio="xMidYMid meet">

<g transform="translate(0.000000,418.000000) scale(0.100000,-0.100000)"
fill="#000000" stroke="none">
<path d="M65 4151 c0 -18 8 -37 20 -46 20 -16 20 -16 -2 -10 -14 4 -23 2 -23
-5 0 -6 -8 -10 -17 -8 -18 3 -23 -2 -23 -22 0 -15 28 -12 37 5 6 9 17 12 33 8
22 -6 22 -7 4 -14 -18 -7 -18 -7 0 -14 23 -10 36 9 36 53 0 17 5 32 11 32 6 0
9 -7 5 -15 -3 -9 0 -15 8 -15 8 0 17 7 20 16 4 11 13 14 31 10 21 -5 25 -3 25
15 0 17 5 20 21 16 13 -3 19 -1 16 6 -2 8 -38 13 -103 15 l-99 3 0 -30z"/>
<path d="M1970 4164 c29 -9 63 -12 96 -8 59 7 94 -7 94 -37 0 -37 48 -69 103
-69 40 0 63 20 45 38 -7 7 -17 12 -24 12 -7 0 -35 18 -63 40 l-50 40 -123 -1
c-122 -1 -122 -1 -78 -15z"/>
<path d="M2435 4039 c-187 -76 -547 -223 -800 -326 -318 -130 -468 -196 -487
-214 -53 -52 -50 -62 198 -696 124 -318 252 -645 285 -728 34 -82 61 -158 62
-167 1 -10 5 -18 10 -18 4 0 6 -4 2 -9 -3 -5 -1 -12 5 -16 6 -4 8 -10 5 -15
-8 -12 20 -71 30 -63 4 5 5 0 2 -9 -4 -10 -2 -18 3 -18 5 0 6 -7 3 -17 -5 -12
-3 -14 7 -8 8 5 11 4 7 -2 -10 -15 13 -74 25 -67 6 4 8 -2 3 -16 -5 -15 -4
-20 4 -16 7 5 9 1 5 -8 -3 -9 -1 -16 6 -16 6 0 9 -4 5 -9 -3 -5 -1 -12 5 -16
6 -4 8 -11 5 -16 -4 -5 -1 -9 5 -9 6 0 8 -4 5 -10 -3 -5 -2 -10 4 -10 6 0 8
-7 5 -15 -4 -8 -1 -15 6 -15 7 0 10 -7 6 -16 -3 -8 -2 -13 2 -10 4 2 25 -41
45 -97 57 -154 69 -178 94 -194 23 -15 43 -11 43 11 0 21 51 61 153 120 54 31
102 56 106 56 3 0 23 -14 43 -30 33 -27 40 -29 60 -19 55 29 1878 1126 1891
1138 4 4 -11 20 -34 35 l-41 28 -15 -22 c-8 -11 -43 -34 -76 -50 -57 -26 -94
-61 -83 -78 2 -4 -14 -7 -37 -7 -23 1 -52 -5 -65 -13 -12 -8 -25 -13 -27 -10
-3 3 19 17 47 32 29 15 99 57 156 92 57 35 108 64 114 64 8 0 168 87 197 106
2 2 -20 85 -47 186 -28 101 -119 431 -202 733 -83 303 -155 565 -161 583 -10
30 -13 32 -61 32 -45 0 -50 -2 -45 -19 2 -11 96 -337 207 -725 112 -388 201
-708 199 -709 -2 -2 -420 -244 -929 -537 -509 -293 -1024 -591 -1145 -661
-158 -91 -222 -124 -227 -114 -22 38 -758 1940 -755 1949 3 6 395 184 873 395
478 211 885 392 904 402 l35 18 -150 0 -150 0 -340 -140z m1465 -1703 c0 -2
-7 -7 -16 -10 -8 -3 -12 -2 -9 4 6 10 25 14 25 6z m-45 -26 c-3 -5 -12 -10
-18 -10 -7 0 -6 4 3 10 19 12 23 12 15 0z"/>
<path d="M35 4140 c3 -5 8 -10 11 -10 2 0 4 5 4 10 0 6 -5 10 -11 10 -5 0 -7
-4 -4 -10z"/>
<path d="M313 4137 c-2 -4 -14 -5 -24 -2 -14 5 -20 2 -18 -7 3 -28 -1 -37 -18
-31 -10 4 -14 2 -9 -5 3 -6 1 -14 -6 -18 -8 -5 -4 -10 11 -16 12 -4 19 -13 16
-19 -4 -6 -13 -8 -21 -5 -8 3 -14 2 -14 -3 0 -12 39 -21 46 -10 8 14 34 11 34
-5 0 -9 7 -12 20 -9 14 4 20 0 20 -12 0 -14 3 -15 14 -6 13 11 12 15 -5 32
-10 10 -23 19 -29 19 -5 0 -14 9 -19 19 -11 20 -3 32 29 44 10 4 7 6 -7 6 -28
1 -31 21 -4 21 11 0 22 4 25 8 2 4 -4 8 -15 8 -11 0 -23 -4 -26 -9z"/>
<path d="M2281 4134 c6 -8 18 -14 26 -14 20 0 8 16 -17 23 -17 4 -19 3 -9 -9z"/>
<path d="M2417 4133 c-10 -9 -9 -23 2 -23 5 0 11 7 15 15 5 15 -5 20 -17 8z"/>
<path d="M25 4110 c-3 -5 -1 -10 4 -10 6 0 11 5 11 10 0 6 -2 10 -4 10 -3 0
-8 -4 -11 -10z"/>
<path d="M2073 4087 c4 -11 1 -20 -8 -23 -8 -4 -15 -11 -15 -17 0 -6 10 -1 22
11 19 18 20 24 9 34 -12 11 -13 10 -8 -5z"/>
<path d="M2123 4070 c14 -11 28 -30 30 -43 4 -19 4 -18 6 5 1 17 -7 32 -21 42
-33 23 -45 19 -15 -4z"/>
<path d="M445 4070 c-3 -5 -1 -10 4 -10 6 0 11 5 11 10 0 6 -2 10 -4 10 -3 0
-8 -4 -11 -10z"/>
<path d="M4907 4056 c-3 -7 -3 -24 0 -39 7 -36 56 -63 130 -69 67 -6 76 1 66
56 -7 34 -26 48 -71 51 -20 2 -56 6 -79 8 -28 4 -43 1 -46 -7z"/>
<path d="M516 4045 c-3 -8 -12 -12 -19 -9 -8 3 -17 -1 -20 -9 -3 -8 -24 -17
-47 -21 -22 -3 -38 -11 -35 -16 3 -5 22 -6 42 -3 28 5 39 2 49 -12 13 -17 14
-17 14 11 0 18 8 35 20 44 21 15 26 30 11 30 -5 0 -11 -7 -15 -15z"/>
<path d="M136 4041 c-3 -5 1 -14 8 -20 16 -13 32 2 21 19 -8 12 -22 13 -29 1z"/>
<path d="M196 4032 c-7 -12 3 -42 14 -42 16 0 18 15 5 33 -7 10 -16 14 -19 9z"/>
<path d="M585 4000 c-3 -5 -14 -10 -23 -10 -16 0 -19 -16 -13 -72 1 -5 9 -8
19 -8 10 0 22 -3 26 -7 14 -14 76 -13 76 1 0 8 7 16 15 20 8 3 15 15 15 26 0
11 5 20 10 20 6 0 10 5 10 10 0 6 -9 10 -20 10 -11 0 -20 5 -20 10 0 6 -5 10
-11 10 -6 0 -8 -9 -4 -20 4 -14 2 -20 -8 -20 -8 0 -22 9 -32 20 -20 22 -31 25
-40 10z"/>
<path d="M140 3990 c-12 -8 -11 -10 7 -10 12 0 25 5 28 10 8 13 -15 13 -35 0z"/>
<path d="M255 3980 c3 -5 8 -10 11 -10 2 0 4 5 4 10 0 6 -5 10 -11 10 -5 0 -7
-4 -4 -10z"/>
<path d="M200 3970 c0 -5 5 -10 10 -10 6 0 10 5 10 10 0 6 -4 10 -10 10 -5 0
-10 -4 -10 -10z"/>
<path d="M310 3963 c0 -17 38 -41 48 -31 6 6 12 6 16 -1 7 -11 36 -4 36 9 0 4
-15 10 -32 13 -18 3 -41 8 -50 12 -10 4 -18 3 -18 -2z"/>
<path d="M432 3919 c2 -7 10 -15 17 -17 8 -3 12 1 9 9 -2 7 -10 15 -17 17 -8
3 -12 -1 -9 -9z"/>
<path d="M3272 3907 l-43 -22 7 -50 c17 -113 50 -86 -326 -261 -184 -86 -338
-159 -342 -163 -4 -4 40 -88 98 -189 l105 -181 249 124 c187 94 255 132 272
156 l23 31 6 -29 c15 -67 10 -100 -19 -125 -16 -12 -133 -75 -260 -138 -128
-63 -232 -118 -232 -122 0 -15 498 241 514 264 23 33 21 60 -29 361 -25 150
-46 281 -48 292 -1 14 10 25 46 42 26 13 47 25 47 28 0 10 -26 3 -68 -18z m10
-362 c39 -223 56 -198 -247 -352 -132 -67 -245 -122 -250 -123 -10 0 -195 310
-195 327 0 10 641 313 655 309 5 -1 22 -74 37 -161z"/>
<path d="M2996 3333 c-3 -10 -8 -35 -12 -56 l-6 -38 38 16 c21 8 39 17 40 18
1 1 -10 19 -26 40 -24 32 -29 35 -34 20z"/>
<path d="M378 3903 c6 -2 18 -2 25 0 6 3 1 5 -13 5 -14 0 -19 -2 -12 -5z"/>
<path d="M487 3903 c-10 -16 11 -39 23 -27 8 8 7 14 -4 23 -8 7 -17 8 -19 4z"/>
<path d="M440 3879 c0 -5 5 -7 10 -4 6 3 10 8 10 11 0 2 -4 4 -10 4 -5 0 -10
-5 -10 -11z"/>
<path d="M6167 3879 c-18 -11 -314 -15 -358 -6 l-35 8 -13 -68 c-7 -37 -22
-105 -33 -149 -19 -79 -19 -83 -2 -119 20 -42 45 -55 112 -56 26 0 56 -4 67
-8 21 -9 129 44 250 121 32 21 70 41 83 45 21 5 23 10 21 64 -2 51 -4 57 -19
49 -9 -5 -23 -17 -31 -27 -11 -15 -9 -15 11 2 l25 20 -19 -22 c-10 -13 -22
-20 -27 -17 -5 2 -22 -14 -39 -37 -28 -39 -30 -40 -30 -17 0 14 14 44 30 66
41 57 29 53 -15 -4 -19 -26 -35 -42 -35 -35 0 25 31 70 74 107 24 22 47 49 50
60 6 18 2 22 -23 26 -17 2 -36 1 -44 -3z m39 -54 c-11 -8 -32 -26 -48 -40 -15
-14 -31 -25 -34 -25 -12 0 30 42 61 61 36 22 48 24 21 4z m-86 -89 c0 -2 -7
-9 -15 -16 -13 -11 -14 -10 -9 4 5 14 24 23 24 12z"/>
<path d="M550 3862 c0 -15 11 -21 27 -15 12 5 12 7 1 14 -17 11 -28 11 -28 1z"/>
<path d="M485 3850 c3 -5 12 -10 20 -10 8 0 17 5 20 10 4 6 -5 10 -20 10 -15
0 -24 -4 -20 -10z"/>
<path d="M3364 3838 l-19 -23 23 19 c21 18 27 26 19 26 -2 0 -12 -10 -23 -22z"/>
<path d="M5434 3848 c-8 -13 33 -51 49 -45 26 8 17 27 -13 27 -28 0 -31 2 -20
15 8 9 9 15 2 15 -6 0 -14 -5 -18 -12z"/>
<path d="M5540 3815 c0 -9 6 -12 15 -9 8 4 15 10 15 15 0 5 -7 9 -15 9 -8 0
-15 -7 -15 -15z"/>
<path d="M5400 3810 c0 -8 -8 -10 -25 -6 -18 5 -25 2 -25 -9 0 -19 37 -43 81
-51 33 -7 34 -7 17 13 -10 11 -18 24 -18 30 0 6 -7 16 -15 23 -12 10 -15 10
-15 0z"/>
<path d="M3332 3765 c0 -16 2 -22 5 -12 2 9 2 23 0 30 -3 6 -5 -1 -5 -18z"/>
<path d="M5540 3773 c-44 -21 -45 -22 -37 -29 7 -8 105 24 112 37 10 15 -37
10 -75 -8z"/>
<path d="M285 3660 c-4 -6 -3 -10 2 -9 22 4 35 -2 30 -15 -4 -10 -1 -13 9 -9
18 7 18 11 0 29 -17 17 -32 18 -41 4z"/>
<path d="M0 3631 c0 -21 6 -31 23 -36 l22 -8 -23 -4 c-40 -8 -23 -38 23 -41
36 -3 77 -22 47 -22 -17 0 -15 -17 3 -24 8 -3 20 0 27 7 7 7 33 13 58 13 25 0
61 7 80 16 l35 15 -79 39 c-44 21 -88 47 -98 57 -12 11 -34 17 -68 17 -48 0
-50 -1 -50 -29z"/>
<path d="M3351 3634 c0 -11 3 -14 6 -6 3 7 2 16 -1 19 -3 4 -6 -2 -5 -13z"/>
<path d="M236 3615 c10 -26 64 -47 64 -25 0 8 -51 40 -64 40 -3 0 -3 -7 0 -15z"/>
<path d="M4787 3614 c-4 -12 -21 -40 -36 -62 -60 -82 -267 -153 -437 -149 -62
2 -74 -1 -71 -13 2 -8 15 -53 28 -100 12 -47 27 -88 32 -91 16 -11 136 2 216
22 90 23 170 69 218 124 58 67 64 85 61 193 -2 61 -6 89 -11 76z"/>
<path d="M2381 3616 c10 -9 89 -46 89 -41 0 5 -75 45 -86 45 -4 0 -5 -2 -3 -4z"/>
<path d="M3361 3574 c0 -11 3 -14 6 -6 3 7 2 16 -1 19 -3 4 -6 -2 -5 -13z"/>
<path d="M3372 3520 c0 -14 2 -19 5 -12 2 6 2 18 0 25 -3 6 -5 1 -5 -13z"/>
<path d="M386 3487 c-11 -8 -17 -20 -14 -27 2 -8 10 -3 21 14 20 30 19 32 -7
13z"/>
<path d="M3381 3464 c0 -11 3 -14 6 -6 3 7 2 16 -1 19 -3 4 -6 -2 -5 -13z"/>
<path d="M1 3243 c1 -184 1 -187 17 -151 16 36 32 50 32 28 0 -6 7 -6 19 1 10
7 26 9 35 6 14 -5 15 -11 6 -27 -14 -26 -4 -76 15 -84 21 -8 28 12 11 30 -21
21 -20 47 2 67 21 19 42 22 42 6 0 -7 12 -9 33 -6 44 7 114 -38 95 -61 -11
-13 -10 -15 12 -8 65 18 82 18 113 3 18 -9 97 -42 177 -72 80 -31 154 -60 165
-65 11 -5 37 -14 57 -20 46 -14 57 -29 33 -47 -22 -16 -20 -16 23 -4 39 12 34
-2 -12 -30 -38 -23 -21 -25 34 -3 23 9 47 13 57 9 10 -4 35 -9 57 -11 21 -1
42 -8 46 -14 4 -6 10 -11 14 -11 32 4 38 1 25 -16 -13 -15 -9 -16 49 -10 35 4
84 16 109 27 38 17 44 23 41 46 -3 24 -11 29 -88 51 -47 13 -116 35 -155 47
-38 13 -169 54 -290 91 -247 75 -491 155 -548 180 -27 11 -37 21 -35 34 2 10
-10 34 -25 54 -15 21 -25 41 -22 47 8 13 -21 67 -43 79 -9 5 -36 12 -59 16
l-43 7 1 -189z"/>
<path d="M2375 3220 c-22 -10 -36 -19 -32 -19 12 -1 77 27 77 33 0 7 3 8 -45
-14z"/>
<path d="M4600 3164 c-54 -18 -258 -46 -271 -38 -10 6 -11 -2 -3 -32 5 -19 10
-20 59 -12 29 4 81 17 114 27 34 10 61 17 61 16 0 -2 -18 -14 -40 -26 -22 -12
-38 -24 -36 -27 4 -4 63 28 145 80 49 31 40 34 -29 12z"/>
<path d="M6120 3120 c-31 -20 -19 -58 61 -187 l79 -128 0 53 c0 45 -6 62 -39
110 -21 31 -48 76 -60 100 l-21 42 25 0 c14 0 25 5 25 10 0 13 -50 13 -70 0z"/>
<path d="M3264 3095 c-9 -36 2 -55 30 -55 19 0 27 7 32 25 9 36 -2 55 -30 55
-19 0 -27 -7 -32 -25z m51 -15 c0 -29 -32 -41 -41 -16 -9 24 4 48 23 44 12 -2
18 -12 18 -28z"/>
<path d="M3488 3084 c-27 -13 -48 -29 -48 -35 0 -6 23 2 50 17 28 15 50 31 50
36 0 10 3 11 -52 -18z"/>
<path d="M6170 3085 c14 -16 40 -20 40 -6 0 9 -24 21 -42 21 -6 0 -6 -6 2 -15z"/>
<path d="M3983 3040 c-87 -53 -50 -206 46 -185 33 7 98 61 87 73 -4 4 -12 -1
-17 -11 -12 -20 -61 -47 -87 -47 -19 0 -52 29 -52 46 0 5 31 27 70 48 59 34
68 42 59 57 -10 20 -40 39 -61 39 -7 0 -27 -9 -45 -20z m75 -12 c7 -7 12 -15
12 -19 0 -7 -102 -69 -114 -69 -3 0 -6 11 -6 25 0 52 75 96 108 63z"/>
<path d="M3135 2900 c-137 -71 -251 -134 -254 -141 -2 -6 43 13 100 43 57 31
172 90 254 133 163 85 160 83 154 89 -2 3 -117 -53 -254 -124z"/>
<path d="M125 2970 c-13 -6 -15 -9 -5 -9 8 0 22 4 30 9 18 12 2 12 -25 0z"/>
<path d="M3830 2953 c-28 -10 -69 -56 -75 -84 -4 -16 -1 -45 5 -64 21 -63 79
-73 135 -24 20 18 33 34 30 37 -2 3 -17 -7 -31 -21 -35 -35 -76 -35 -103 -1
-12 15 -21 40 -21 56 0 38 48 88 84 88 14 0 26 5 26 10 0 11 -25 12 -50 3z"/>
<path d="M4855 2936 c-11 -17 -15 -38 -12 -58 2 -18 1 -41 -4 -50 -13 -25 -19
-88 -8 -88 11 0 102 -63 129 -90 19 -19 19 -19 -17 -55 l-36 -36 29 7 c16 4
44 13 62 20 30 12 35 11 55 -9 12 -12 20 -28 19 -36 -2 -9 2 -12 12 -8 9 4 16
1 16 -5 0 -15 40 -48 59 -48 9 0 22 9 28 19 13 21 116 76 178 96 l40 13 -42
11 c-24 7 -41 17 -39 24 1 6 1 9 -1 5 -7 -12 -29 -10 -89 8 -46 13 -54 19 -54
40 0 21 4 24 39 24 22 0 41 -3 43 -7 4 -10 225 -76 253 -76 11 -1 52 0 90 1
l70 3 -120 45 c-219 82 -375 134 -375 125 0 -5 -3 -16 -6 -25 -4 -12 0 -16 17
-17 21 -1 20 -2 -6 -9 -16 -4 -22 -8 -12 -9 15 -1 26 -21 11 -21 -15 0 -188
112 -257 166 -15 12 -27 26 -27 32 0 5 -6 15 -14 21 -12 10 -18 7 -31 -13z
m400 -186 c8 -13 -5 -13 -25 0 -13 8 -13 10 2 10 9 0 20 -4 23 -10z m176 -68
c-7 -2 -18 1 -23 6 -8 8 -4 9 13 5 13 -4 18 -8 10 -11z"/>
<path d="M2912 2928 c-7 -7 -12 -24 -12 -39 0 -50 59 -48 75 2 12 38 -35 65
-63 37z m46 -32 c-4 -25 -36 -34 -44 -12 -8 21 13 46 32 39 8 -3 14 -15 12
-27z"/>
<path d="M3672 2857 c-12 -13 -22 -30 -22 -37 0 -11 -3 -11 -12 -2 -26 26 -25
9 5 -70 34 -93 35 -94 43 -85 4 3 -3 33 -16 66 -25 67 -21 90 18 126 15 14 22
25 16 25 -6 0 -20 -10 -32 -23z"/>
<path d="M3463 2735 c-33 -33 -35 -39 -30 -81 8 -78 58 -105 127 -69 29 15 57
52 47 62 -3 2 -11 -5 -17 -17 -6 -12 -27 -28 -47 -36 -31 -14 -38 -13 -60 1
-36 24 -25 46 45 84 34 19 62 38 62 43 0 4 -9 17 -20 28 -30 30 -67 25 -107
-15z m88 6 c13 -11 22 -21 19 -24 -3 -2 -31 -18 -62 -36 l-58 -32 0 29 c0 21
9 38 31 56 37 31 40 31 70 7z"/>
<path d="M2766 2709 c-32 -17 -56 -33 -53 -35 5 -6 127 53 127 61 0 9 -15 4
-74 -26z"/>
<path d="M67 2633 c-57 -21 -67 -29 -67 -49 l0 -24 43 16 c23 9 51 20 62 25
11 5 33 13 49 19 23 9 26 13 16 25 -16 19 -22 19 -103 -12z"/>
<path d="M3281 2634 c-17 -14 -31 -31 -31 -38 0 -8 -11 -11 -31 -8 -22 3 -37
-2 -55 -19 -13 -12 -24 -27 -24 -33 0 -6 7 -1 15 11 18 26 49 35 69 19 8 -6
24 -39 36 -73 13 -35 26 -60 31 -57 5 3 0 28 -11 57 -11 29 -20 64 -20 80 0
32 31 67 61 67 19 0 36 -29 74 -125 4 -12 9 -15 12 -8 5 14 -32 120 -49 140
-16 20 -44 15 -77 -13z"/>
<path d="M5695 2630 c27 -12 43 -12 25 0 -8 5 -22 9 -30 9 -10 0 -8 -3 5 -9z"/>
<path d="M93 2582 c-76 -30 -93 -41 -93 -58 0 -21 4 -20 110 19 99 36 108 41
99 58 -12 23 -5 25 -116 -19z"/>
<path d="M5510 2570 c-30 -5 -58 -6 -62 -4 -4 3 -15 1 -25 -4 -27 -14 -82 -29
-132 -37 -90 -15 -134 -63 -96 -105 15 -17 12 -19 -62 -38 -43 -11 -152 -37
-243 -57 -91 -21 -169 -41 -174 -46 -5 -4 -2 -33 8 -69 16 -56 16 -63 1 -86
-16 -24 -35 -32 -35 -14 0 5 9 14 21 20 11 7 19 14 16 16 -7 7 -177 -105 -177
-116 0 -5 20 -23 46 -40 l45 -32 63 41 c68 44 76 48 76 29 0 -7 -39 -38 -85
-68 l-85 -55 30 -26 c63 -53 73 -55 125 -19 32 22 50 29 57 22 7 -7 3 -14 -11
-22 -12 -6 -19 -15 -16 -20 4 -6 -2 -7 -12 -3 -16 6 -16 5 -4 -10 7 -10 36
-33 62 -53 l49 -36 45 29 c25 15 45 33 45 40 0 7 17 17 38 22 127 34 363 91
376 91 13 0 16 -12 16 -58 0 -71 19 -102 61 -102 45 0 86 45 94 103 4 26 12
50 18 54 6 4 8 -2 3 -18 -3 -13 -9 -43 -13 -67 -4 -33 -17 -55 -49 -88 -41
-43 -62 -92 -49 -114 3 -5 -3 -10 -14 -10 -10 0 -22 6 -25 13 -4 6 -4 -11 -2
-40 6 -63 26 -105 74 -155 28 -30 56 -44 127 -68 51 -16 123 -34 161 -40 126
-19 149 -22 166 -23 13 -1 14 -5 6 -14 -13 -16 -32 -17 -22 -1 4 7 3 8 -5 4
-6 -4 -9 -11 -6 -16 6 -10 -99 -101 -390 -340 -110 -90 -214 -176 -231 -192
-17 -16 -37 -26 -45 -23 -8 3 -23 -1 -34 -9 -17 -12 -18 -16 -5 -32 14 -16 13
-17 -5 -10 -11 4 -16 4 -12 0 8 -9 -21 -44 -37 -44 -6 0 -17 -9 -24 -20 -7
-11 -19 -20 -27 -20 -8 0 -15 -4 -15 -9 0 -6 -34 -35 -75 -66 -84 -64 -92 -72
-77 -87 8 -8 29 4 74 41 35 29 108 88 163 132 55 43 107 84 115 92 8 7 27 19
43 26 15 8 27 21 27 29 0 9 6 12 16 8 8 -3 13 -2 10 3 -7 11 113 107 157 126
18 8 28 14 23 15 -14 0 45 60 59 60 6 0 26 15 44 34 19 19 40 32 47 29 8 -3
14 1 14 10 0 19 101 69 114 56 6 -5 1 -18 -14 -34 -13 -14 -20 -25 -17 -25 11
0 47 39 47 50 0 6 5 10 11 10 5 0 8 4 5 9 -3 5 5 11 18 13 22 4 23 2 16 -18
-5 -12 -6 -25 -2 -30 4 -4 1 -4 -6 0 -7 4 -15 0 -19 -11 -4 -10 -11 -21 -16
-24 -5 -3 0 -9 11 -11 15 -4 26 4 44 31 14 20 30 35 36 33 7 -1 15 5 18 13 4
9 15 20 26 26 13 7 18 7 14 1 -3 -6 -2 -13 4 -17 6 -3 13 1 16 9 3 9 13 16 21
16 8 0 11 5 7 13 -4 7 -3 9 2 4 5 -5 9 -14 9 -20 0 -7 7 -12 16 -12 9 0 24 -6
33 -14 9 -7 16 -9 16 -3 0 5 7 13 16 16 12 5 15 2 10 -10 -5 -13 -2 -15 16 -9
13 4 31 7 41 6 16 0 17 26 17 409 l0 409 -47 6 c-75 10 -190 64 -243 114 -12
12 -11 13 8 7 12 -4 29 -3 37 2 24 13 -1 30 -58 41 -36 6 -44 5 -40 -5 7 -19
-27 -18 -53 0 -10 8 -16 18 -12 22 10 9 -22 33 -43 34 -19 0 -73 26 -111 52
-24 17 -60 25 -118 28 -24 1 -24 1 -6 15 31 23 121 18 206 -11 82 -28 339 -88
346 -80 13 14 11 47 -2 61 -15 14 -16 22 -6 47 10 27 8 34 -21 74 -18 24 -37
43 -44 44 -6 0 -25 11 -41 25 -17 14 -36 25 -44 25 -8 0 -23 8 -34 18 -24 22
-102 57 -110 49 -3 -3 -31 8 -62 24 -31 16 -61 29 -66 29 -5 0 -17 6 -25 14
-21 19 -94 26 -161 16z m147 -152 c31 -21 62 -33 95 -36 27 -2 51 -9 55 -14 4
-7 -45 -9 -141 -5 -80 3 -146 1 -146 -4 0 -11 -46 -23 -59 -14 -17 10 52 64
95 74 22 5 33 9 27 10 -7 1 -13 6 -13 11 0 20 42 9 87 -22z m-417 -95 c0 -18
-38 -35 -62 -27 -14 4 -18 2 -14 -5 10 -15 -7 -14 -23 2 -10 10 -11 8 -6 -8 5
-18 4 -18 -11 3 -9 12 -20 22 -25 22 -14 0 -11 -28 4 -33 7 -3 5 -6 -6 -6 -18
-1 -35 25 -24 36 11 11 112 10 120 -1 5 -6 5 -1 2 11 -5 20 -3 23 19 21 14 -1
26 -8 26 -15z m-177 -43 c3 -11 2 -20 -3 -20 -8 0 -20 24 -20 41 0 17 17 1 23
-21z m-33 -1 c16 -30 8 -31 -13 -3 -10 13 -13 24 -8 24 6 0 15 -9 21 -21z
m-47 -19 c3 -11 1 -18 -4 -14 -5 3 -9 1 -9 -4 0 -10 -50 -10 -67 1 -7 5 -13
13 -13 19 0 6 9 3 20 -7 18 -16 20 -16 20 -2 0 16 29 39 41 31 4 -2 9 -13 12
-24z m-113 -28 c0 -14 -2 -14 -9 -3 -7 11 -10 10 -13 -5 -3 -17 -4 -17 -10 4
-3 12 -2 20 3 16 5 -3 9 0 9 6 0 6 5 8 10 5 6 -3 10 -14 10 -23z m-44 -19 c-3
-4 -6 -1 -6 6 0 7 -4 9 -10 6 -11 -7 -14 8 -3 19 4 3 11 -1 16 -9 5 -9 6 -19
3 -22z m703 28 c12 -8 12 -12 2 -25 -19 -23 -36 -20 -55 9 -16 25 -16 25 11
25 16 0 34 -4 42 -9z m-739 -21 c6 -11 7 -20 2 -20 -6 0 -12 9 -15 20 -3 11
-3 20 -1 20 2 0 8 -9 14 -20z m124 -90 c22 -54 21 -57 -16 -65 -18 -4 -41 -9
-50 -11 -13 -4 -22 5 -33 32 -22 52 -19 59 23 71 57 16 59 16 76 -27z m369
-20 c3 -13 1 -20 -5 -18 -6 2 -13 14 -15 27 -4 27 12 20 20 -9z m-33 -1 c0 -6
-4 -7 -10 -4 -5 3 -10 11 -10 16 0 6 5 7 10 4 6 -3 10 -11 10 -16z m-27 -2 c3
-8 1 -20 -4 -28 -8 -11 -9 -10 -7 5 2 10 -3 21 -11 24 -10 3 -12 -1 -9 -16 4
-14 2 -19 -8 -15 -15 5 -14 24 1 35 16 12 32 9 38 -5z m-111 -25 c-12 -12 -20
-14 -28 -7 -16 14 -10 20 20 23 25 2 25 1 8 -16z m-352 -11 c0 -26 -108 -97
-124 -81 -8 9 -7 11 6 8 9 -1 17 2 18 7 1 6 -12 9 -29 7 -18 -2 -31 1 -31 8 0
6 -5 8 -12 4 -6 -4 -8 -3 -5 4 4 5 15 8 25 5 16 -4 68 16 122 47 23 14 30 12
30 -9z m298 -3 c17 -17 15 -29 -3 -22 -8 4 -15 1 -15 -5 0 -6 -5 -11 -11 -11
-5 0 -8 4 -4 9 3 5 1 12 -5 16 -5 3 -10 10 -10 16 0 13 34 11 48 -3z m73 -1
c-1 -12 -15 -9 -19 4 -3 6 1 10 8 8 6 -3 11 -8 11 -12z m-156 -24 c4 -11 1
-13 -11 -9 -8 3 -22 6 -30 6 -8 0 -14 4 -14 9 0 15 49 9 55 -6z m-65 -3 c0 -5
-2 -10 -4 -10 -3 0 -8 5 -11 10 -3 6 -1 10 4 10 6 0 11 -4 11 -10z m5 -38 c-3
-3 -11 0 -18 7 -9 10 -8 11 6 5 10 -3 15 -9 12 -12z m255 8 c-18 -12 -43 -13
-36 -2 2 4 15 8 28 9 18 2 19 0 8 -7z m-285 -10 c3 -5 1 -10 -4 -10 -6 0 -11
5 -11 10 0 6 2 10 4 10 3 0 8 -4 11 -10z m2 -56 c-3 -3 -12 -4 -19 -1 -8 3 -5
6 6 6 11 1 17 -2 13 -5z m-77 -29 c0 -2 -20 -18 -45 -35 -36 -25 -48 -29 -63
-20 -16 11 -16 11 1 6 11 -3 34 6 59 24 41 30 48 34 48 25z m967 -89 c-13 -15
-39 -14 -44 1 -2 5 10 10 26 11 25 0 28 -2 18 -12z m183 -740 c0 -3 -4 -8 -10
-11 -5 -3 -10 -1 -10 4 0 6 5 11 10 11 6 0 10 -2 10 -4z"/>
<path d="M216 2545 c-3 -8 -10 -15 -16 -15 -6 0 -8 5 -5 10 12 19 -14 10 -35
-12 -11 -12 -20 -17 -20 -11 0 6 -9 9 -20 6 -11 -3 -20 -9 -20 -13 0 -5 -14
-11 -30 -15 -17 -4 -30 -13 -30 -20 0 -8 -7 -11 -20 -8 -14 4 -20 0 -20 -11 0
-9 4 -16 10 -16 15 0 136 45 220 82 33 14 34 15 13 26 -17 9 -22 9 -27 -3z"/>
<path d="M3127 2473 c14 -38 28 -76 30 -85 5 -17 23 -26 23 -10 -1 12 -45 136
-53 150 -5 6 -12 12 -17 12 -5 0 3 -30 17 -67z"/>
<path d="M2965 2455 c-14 -13 -25 -29 -25 -35 0 -7 -8 -9 -20 -5 -25 8 -77
-19 -85 -45 -7 -21 -25 -28 -25 -9 0 5 -4 8 -9 5 -7 -5 9 -57 50 -155 5 -13
12 -21 16 -18 3 4 -4 34 -16 68 -26 70 -22 101 15 126 36 23 53 10 79 -62 13
-33 28 -61 34 -63 7 -2 4 17 -9 50 -25 67 -26 110 -1 132 37 33 63 17 90 -54
29 -75 29 -75 37 -67 7 7 -33 123 -49 145 -15 20 -56 14 -82 -13z"/>
<path d="M6166 2457 c11 -12 26 -34 34 -49 9 -19 21 -28 37 -28 21 0 24 4 21
32 -3 28 -8 33 -57 50 l-54 18 19 -23z"/>
<path d="M4381 2361 c-10 -7 -7 -9 12 -8 14 1 23 5 20 10 -6 9 -15 9 -32 -2z"/>
<path d="M6220 2362 c0 -4 9 -20 20 -37 l20 -30 0 31 c0 23 -5 33 -20 37 -11
3 -20 2 -20 -1z"/>
<path d="M4415 2329 c-25 -25 -63 -35 -78 -20 -9 9 -8 11 6 5 13 -5 16 -2 11
10 -5 12 -10 13 -25 5 -26 -13 -24 -27 5 -41 21 -9 32 -6 71 16 25 15 43 31
40 37 -8 11 -6 12 -30 -12z"/>
<path d="M4443 2299 c-40 -26 -43 -35 -5 -16 30 16 65 14 70 -3 2 -5 7 -8 12
-5 4 3 13 -1 19 -9 10 -11 1 -21 -46 -50 -31 -20 -63 -36 -70 -36 -6 0 -24 11
-40 24 l-28 24 25 22 c19 16 20 19 5 11 -11 -5 -29 -16 -39 -24 -19 -14 -18
-16 24 -46 24 -17 48 -31 54 -31 20 0 149 92 140 99 -20 16 -83 61 -86 61 -2
0 -18 -10 -35 -21z"/>
<path d="M2661 2286 c-48 -27 -64 -91 -36 -145 27 -52 73 -55 121 -7 38 38 44
77 19 125 -21 43 -59 52 -104 27z m74 -21 c50 -49 20 -145 -47 -145 -67 0 -83
120 -20 154 36 20 39 20 67 -9z"/>
<path d="M4233 2274 c-49 -30 -51 -34 -23 -59 18 -17 21 -16 67 10 60 35 56
31 48 45 -5 9 -9 9 -14 1 -4 -6 -22 -14 -40 -17 -26 -6 -33 -4 -29 7 3 8 14
14 26 14 12 0 22 4 23 10 1 18 -16 14 -58 -11z"/>
<path d="M2455 2256 c-41 -18 -83 -69 -90 -110 -10 -49 11 -111 46 -140 35
-30 58 -32 105 -10 35 17 89 72 80 82 -3 3 -15 -7 -27 -22 -25 -32 -69 -56
-102 -56 -43 0 -87 65 -87 129 0 58 48 110 108 118 23 3 42 10 42 14 0 13 -40
10 -75 -5z"/>
<path d="M4546 2204 l-39 -27 34 -28 c19 -16 42 -31 52 -35 20 -6 97 39 97 57
0 8 -4 8 -14 0 -9 -7 -21 -8 -37 -2 -21 8 -22 10 -7 16 9 4 23 4 30 0 7 -4 0
4 -17 19 -38 32 -51 32 -99 0z m74 6 c0 -5 -7 -10 -15 -10 -8 0 -15 5 -15 10
0 6 7 10 15 10 8 0 15 -4 15 -10z m-62 -33 c6 -7 28 -14 49 -15 47 -4 52 -8
21 -22 -20 -10 -30 -8 -61 12 -35 22 -47 38 -28 38 5 0 13 -6 19 -13z"/>
<path d="M4102 2193 c-41 -24 -42 -26 -26 -44 23 -25 39 -24 91 7 43 25 44 26
27 45 -23 25 -40 24 -92 -8z m48 -7 c0 -11 -19 -15 -25 -6 -3 5 1 10 9 10 9 0
16 -2 16 -4z"/>
<path d="M4253 2182 c-24 -15 -43 -29 -43 -32 0 -3 21 -19 47 -37 l46 -32 39
21 c62 35 63 41 14 76 -24 18 -48 32 -53 32 -4 0 -27 -13 -50 -28z m77 4 c0
-3 -4 -8 -10 -11 -5 -3 -10 -1 -10 4 0 6 5 11 10 11 6 0 10 -2 10 -4z m35 -26
c3 -5 -1 -10 -9 -10 -9 0 -16 5 -16 10 0 6 4 10 9 10 6 0 13 -4 16 -10z m-95
-10 c0 -5 9 -10 20 -10 11 0 20 -4 20 -9 0 -5 10 -7 23 -4 l22 5 -23 -17 c-22
-16 -25 -16 -63 10 -45 32 -47 35 -19 35 11 0 20 -4 20 -10z"/>
<path d="M433 2137 c-104 -27 -163 -47 -163 -55 0 -9 5 -10 18 -3 16 9 109 30
162 36 38 5 160 49 160 58 0 9 9 11 -177 -36z"/>
<path d="M1030 2170 c-8 -5 -10 -10 -5 -10 6 0 17 5 25 10 8 5 11 10 5 10 -5
0 -17 -5 -25 -10z"/>
<path d="M4432 2132 l-42 -28 22 -21 c13 -11 35 -28 50 -37 26 -17 28 -17 73
14 25 17 45 32 45 34 0 2 -8 10 -17 17 -15 12 -16 12 -11 -2 4 -11 -3 -24 -22
-38 -16 -11 -33 -21 -37 -21 -15 1 -83 57 -76 63 3 4 12 2 20 -5 8 -6 34 -12
59 -13 26 -1 39 2 32 7 -10 6 -10 10 1 17 16 10 -3 26 -19 16 -6 -4 -9 -1 -8
6 5 24 -27 19 -70 -9z"/>
<path d="M3983 2122 c-49 -31 -53 -48 -18 -64 27 -12 45 -6 95 32 24 18 24 19
6 39 -24 26 -31 26 -83 -7z m82 -2 c3 -5 -1 -10 -10 -10 -9 0 -13 5 -10 10 3
6 8 10 10 10 2 0 7 -4 10 -10z"/>
<path d="M4135 2109 l-49 -31 34 -29 c19 -16 43 -31 53 -35 18 -6 107 40 107
54 0 7 -85 72 -93 72 -2 0 -25 -14 -52 -31z m75 1 c0 -5 -4 -10 -10 -10 -5 0
-10 5 -10 10 0 6 5 10 10 10 6 0 10 -4 10 -10z m-65 -30 c-3 -5 -12 -10 -18
-10 -7 0 -6 4 3 10 19 12 23 12 15 0z m105 0 c0 -5 -7 -7 -15 -4 -8 4 -15 8
-15 10 0 2 7 4 15 4 8 0 15 -4 15 -10z m-66 -37 c3 -7 2 -13 -3 -13 -5 0 -14
6 -20 13 -8 10 -7 14 4 14 8 0 16 -6 19 -14z"/>
<path d="M4325 2064 c-22 -15 -44 -30 -48 -34 -10 -9 74 -70 95 -70 16 0 88
48 88 59 0 7 -83 71 -92 71 -2 0 -21 -12 -43 -26z m71 -8 c3 -8 15 -16 26 -19
26 -7 20 -23 -18 -47 l-30 -19 -37 25 c-46 31 -49 53 -4 27 17 -10 39 -18 47
-17 8 1 22 2 30 3 11 1 7 9 -12 26 -30 26 -34 35 -18 35 6 0 13 -6 16 -14z"/>
<path d="M2058 2029 l-67 -40 41 -117 c23 -64 42 -118 44 -120 1 -2 13 3 26
11 12 8 45 26 71 41 27 15 46 30 44 33 -3 3 -33 -11 -66 -31 l-61 -35 -14 33
c-29 70 -30 69 34 104 33 18 60 37 60 42 0 5 -27 -7 -60 -27 -33 -20 -62 -34
-64 -32 -1 2 -10 24 -20 48 -19 50 -22 46 56 86 43 23 70 46 51 44 -4 0 -38
-19 -75 -40z"/>
<path d="M3865 2049 c-16 -11 -37 -24 -45 -29 -13 -7 -12 -11 4 -29 25 -27 36
-26 91 6 40 25 56 52 26 46 -6 -2 -10 3 -8 9 4 20 -36 18 -68 -3z m30 -19 c-3
-5 -11 -10 -16 -10 -6 0 -7 5 -4 10 3 6 11 10 16 10 6 0 7 -4 4 -10z"/>
<path d="M4013 2034 c-24 -14 -43 -29 -43 -33 0 -8 84 -71 96 -71 12 0 94 54
94 62 0 10 -80 68 -94 68 -6 0 -30 -12 -53 -26z m77 2 c0 -11 -19 -15 -25 -6
-3 5 1 10 9 10 9 0 16 -2 16 -4z m35 -26 c3 -5 1 -10 -4 -10 -6 0 -11 5 -11
10 0 6 2 10 4 10 3 0 8 -4 11 -10z m-100 -10 c3 -5 2 -10 -4 -10 -5 0 -13 5
-16 10 -3 6 -2 10 4 10 5 0 13 -4 16 -10z m40 -21 c10 -15 -1 -23 -20 -15 -9
3 -13 10 -10 16 8 13 22 13 30 -1z"/>
<path d="M73 2016 c-61 -25 -74 -36 -46 -36 34 0 83 21 94 41 5 10 8 19 7 18
-2 0 -26 -11 -55 -23z"/>
<path d="M4473 1992 c-23 -15 -43 -31 -43 -37 0 -5 21 -24 47 -42 50 -35 55
-34 122 17 l24 17 -48 37 c-26 20 -51 36 -54 35 -3 0 -25 -13 -48 -27z m2 -31
c-3 -5 9 -11 27 -13 22 -2 32 -8 30 -17 -2 -11 1 -11 20 2 13 8 22 21 20 27
-3 14 20 8 25 -6 1 -5 -13 -19 -32 -32 l-35 -22 -40 26 c-42 28 -51 44 -24 44
8 0 13 -4 9 -9z"/>
<path d="M2282 1983 c-24 -14 -41 -27 -38 -30 6 -7 86 38 86 49 0 10 4 11 -48
-19z"/>
<path d="M4193 1979 c-24 -17 -43 -31 -43 -33 0 -6 89 -66 99 -66 15 0 91 51
91 60 0 11 -81 70 -94 70 -6 -1 -30 -14 -53 -31z m82 1 c3 -5 -3 -10 -14 -10
-12 0 -21 5 -21 10 0 6 6 10 14 10 8 0 18 -4 21 -10z m3 -40 c13 0 20 4 17 10
-3 6 1 10 9 10 30 0 25 -18 -13 -43 l-39 -26 -41 30 c-23 16 -41 31 -41 33 0
2 19 0 43 -5 23 -4 52 -8 65 -9z"/>
<path d="M3723 1962 c-47 -30 -51 -38 -25 -58 25 -19 36 -17 87 13 42 26 65
63 30 49 -8 -3 -14 0 -12 7 4 22 -38 16 -80 -11z m47 -6 c0 -2 -7 -7 -16 -10
-8 -3 -12 -2 -9 4 6 10 25 14 25 6z"/>
<path d="M3893 1962 c-24 -15 -42 -33 -40 -41 1 -7 21 -27 44 -43 l42 -31 45
27 c25 14 48 30 51 36 5 8 -81 81 -94 79 -3 0 -25 -13 -48 -27z m107 -32 c0
-5 -4 -10 -10 -10 -5 0 -10 5 -10 10 0 6 5 10 10 10 6 0 10 -4 10 -10z m-60
-40 c0 -5 -7 -7 -15 -4 -8 4 -12 10 -9 15 6 11 24 2 24 -11z"/>
<path d="M4078 1908 c-27 -16 -48 -33 -48 -38 0 -12 81 -70 97 -70 17 0 93 50
93 60 0 8 -61 59 -85 72 -5 3 -31 -8 -57 -24z m67 2 c3 -5 1 -10 -4 -10 -6 0
-11 5 -11 10 0 6 2 10 4 10 3 0 8 -4 11 -10z m-15 -57 c31 -12 64 2 40 17 -13
8 -12 10 3 10 25 0 21 -25 -8 -44 -34 -22 -46 -20 -85 14 l-35 30 35 -11 c19
-6 42 -13 50 -16z"/>
<path d="M4353 1912 c-24 -15 -43 -30 -43 -34 0 -4 21 -23 46 -42 39 -30 49
-34 68 -24 35 18 76 49 76 57 0 8 -87 71 -98 71 -4 0 -26 -13 -49 -28z m77 -2
c0 -5 -7 -10 -15 -10 -8 0 -15 5 -15 10 0 6 7 10 15 10 8 0 15 -4 15 -10z m2
-59 c30 16 32 4 3 -15 -24 -16 -27 -15 -65 10 -22 15 -37 30 -35 35 3 4 22 -3
41 -16 29 -20 40 -22 56 -14z m43 28 c11 -17 2 -18 -19 -3 -17 12 -17 14 -4
14 9 0 20 -5 23 -11z"/>
<path d="M3593 1882 c-45 -28 -51 -40 -31 -60 19 -19 47 -14 94 16 40 24 54
51 25 45 -6 -2 -10 3 -8 9 4 23 -37 17 -80 -10z m42 -12 c-3 -5 -11 -10 -16
-10 -6 0 -7 5 -4 10 3 6 11 10 16 10 6 0 7 -4 4 -10z"/>
<path d="M3763 1879 c-24 -17 -43 -33 -43 -37 0 -9 80 -72 91 -72 17 0 99 56
99 67 0 19 -20 26 -35 13 -11 -9 -15 -9 -15 -1 0 6 6 11 13 11 6 1 -1 12 -18
25 -37 31 -41 31 -92 -6z m72 1 c3 -5 1 -10 -4 -10 -6 0 -11 5 -11 10 0 6 2
10 4 10 3 0 8 -4 11 -10z m-65 -30 c0 -5 -4 -10 -10 -10 -5 0 -10 5 -10 10 0
6 5 10 10 10 6 0 10 -4 10 -10z m48 -39 c3 -8 -1 -12 -9 -9 -7 2 -15 10 -17
17 -3 8 1 12 9 9 7 -2 15 -10 17 -17z"/>
<path d="M2 1883 c3 -13 11 -17 28 -15 14 2 55 7 93 11 102 12 93 21 -22 21
-92 0 -102 -2 -99 -17z"/>
<path d="M4536 1856 l-48 -34 48 -36 c26 -20 52 -36 59 -36 20 0 96 60 90 70
-6 10 -90 70 -98 70 -2 0 -25 -15 -51 -34z m38 -49 c3 4 12 -1 19 -11 12 -17
14 -16 37 3 14 11 19 20 13 21 -18 0 -16 20 1 20 30 0 25 -29 -10 -50 l-34
-22 -45 28 c-29 19 -40 31 -32 36 7 5 19 0 28 -12 9 -10 19 -16 23 -13z"/>
<path d="M3953 1829 c-24 -17 -43 -35 -43 -42 0 -14 72 -67 92 -67 10 0 71 35
97 56 6 5 -20 34 -31 34 -5 0 -6 -4 -3 -10 3 -5 1 -10 -5 -10 -7 0 -10 7 -7
15 6 13 -35 56 -52 55 -3 -1 -25 -14 -48 -31z m66 -10 c-7 -4 -17 -5 -22 -2
-5 3 -3 9 4 14 7 4 17 5 22 2 5 -3 3 -9 -4 -14z m-33 -53 c10 -8 16 -17 13
-20 -3 -4 -17 2 -30 13 -27 23 -13 28 17 7z"/>
<path d="M4233 1832 c-24 -15 -43 -31 -43 -37 1 -5 21 -25 46 -44 l44 -34 48
30 c26 16 47 34 47 40 0 12 -78 73 -92 73 -5 0 -27 -13 -50 -28z m67 -2 c0 -5
-4 -10 -10 -10 -5 0 -10 5 -10 10 0 6 5 10 10 10 6 0 10 -4 10 -10z m50 -34
c0 -8 -14 -24 -30 -36 l-31 -22 -42 28 c-42 28 -38 41 9 30 15 -4 22 -11 18
-18 -5 -8 -2 -9 10 -5 10 4 27 7 38 7 17 0 18 3 8 15 -10 12 -10 15 4 15 9 0
16 -6 16 -14z"/>
<path d="M3458 1799 c-27 -17 -48 -35 -48 -40 0 -5 11 -16 25 -25 23 -15 27
-14 80 16 30 17 55 35 55 40 0 11 -40 40 -55 40 -5 0 -31 -14 -57 -31z"/>
<path d="M3637 1800 c-26 -16 -47 -33 -47 -38 0 -10 81 -72 94 -72 6 0 33 14
59 31 48 29 48 31 31 50 -11 12 -25 17 -38 14 -12 -3 -15 -2 -8 1 10 5 9 10
-4 25 -23 25 -32 24 -87 -11z m12 -29 c9 -6 10 -11 2 -15 -13 -8 -31 1 -31 15
0 11 11 11 29 0z m35 -37 c5 -14 4 -15 -9 -4 -17 14 -19 20 -6 20 5 0 12 -7
15 -16z"/>
<path d="M4417 1776 l-48 -34 44 -36 c24 -20 50 -36 57 -36 16 0 100 52 100
62 0 8 -90 77 -100 78 -3 0 -27 -15 -53 -34z m73 4 c0 -5 -7 -10 -16 -10 -8 0
-12 5 -9 10 3 6 10 10 16 10 5 0 9 -4 9 -10z m-50 -39 c0 -12 39 -26 65 -23
20 3 20 2 1 -13 -11 -8 -24 -15 -30 -15 -10 0 -86 50 -86 56 0 2 11 4 25 4 14
0 25 -4 25 -9z"/>
<path d="M793 1769 c6 -18 -28 -44 -38 -29 -4 6 -12 7 -18 3 -7 -4 -22 -6 -34
-4 -13 1 -23 -3 -23 -9 0 -6 4 -9 9 -6 5 4 20 2 33 -3 15 -6 31 -5 42 1 21 12
36 1 16 -12 -12 -8 -12 -10 -1 -10 11 0 11 -3 1 -15 -9 -10 -9 -15 -1 -15 6 0
11 -7 11 -15 0 -8 7 -15 16 -15 13 0 15 9 9 63 -4 34 -12 67 -17 72 -8 7 -9 5
-5 -6z"/>
<path d="M3827 1748 c-26 -17 -47 -35 -47 -42 0 -6 20 -26 45 -44 l44 -33 45
26 c25 15 49 32 53 38 6 10 -41 57 -78 77 -10 6 -30 -1 -62 -22z m53 12 c0 -5
-5 -10 -11 -10 -5 0 -7 5 -4 10 3 6 8 10 11 10 2 0 4 -4 4 -10z m2 -92 c-10
-10 -42 0 -42 13 0 4 7 5 17 2 12 -5 14 -3 8 8 -8 12 -6 12 9 0 9 -8 13 -18 8
-23z"/>
<path d="M4101 1748 l-45 -32 45 -38 c24 -21 49 -38 55 -38 20 0 105 60 99 71
-10 16 -87 69 -99 69 -6 -1 -31 -15 -55 -32z m79 2 c0 -5 -2 -10 -4 -10 -3 0
-8 5 -11 10 -3 6 -1 10 4 10 6 0 11 -4 11 -10z m3 -63 c17 -1 17 -2 1 -14 -24
-18 -29 -17 -61 12 l-28 24 35 -10 c19 -6 43 -12 53 -12z"/>
<path d="M4765 1739 c-50 -37 -52 -43 -23 -63 31 -22 38 -21 87 16 l44 32 -27
23 c-15 13 -30 23 -34 22 -4 0 -25 -14 -47 -30z"/>
<path d="M658 1753 c7 -3 16 -2 19 1 4 3 -2 6 -13 5 -11 0 -14 -3 -6 -6z"/>
<path d="M1302 1752 c-16 -5 -15 -22 2 -22 8 0 17 -7 20 -16 4 -9 9 -15 11
-12 10 9 -20 55 -33 50z"/>
<path d="M3339 1727 c-68 -41 -72 -47 -53 -68 23 -26 45 -24 98 9 52 31 56 43
21 66 -29 19 -22 20 -66 -7z"/>
<path d="M3508 1720 c-27 -17 -48 -34 -48 -39 0 -15 73 -71 93 -71 16 0 107
55 107 65 0 6 -92 75 -99 75 -3 0 -27 -14 -53 -30z m47 -70 c3 -5 -1 -10 -9
-10 -9 0 -16 5 -16 10 0 6 4 10 9 10 6 0 13 -4 16 -10z"/>
<path d="M508 1733 c7 -3 16 -2 19 1 4 3 -2 6 -13 5 -11 0 -14 -3 -6 -6z"/>
<path d="M1241 1731 c-8 -6 -10 -14 -5 -22 18 -30 13 -41 -16 -37 -25 4 -32 0
-44 -26 -14 -29 -14 -31 15 -48 43 -27 35 -52 -18 -56 -32 -2 -42 -8 -47 -25
-3 -13 -1 -23 7 -26 23 -7 169 -161 164 -174 -2 -6 5 -22 16 -35 15 -16 18
-25 10 -33 -14 -14 -48 34 -40 55 3 7 -7 24 -21 37 -30 27 -87 55 -76 38 4 -7
-4 -9 -22 -7 -22 2 -30 10 -38 38 l-11 35 -3 -42 c-2 -23 2 -52 8 -64 10 -17
9 -20 -2 -17 -7 3 -15 25 -18 51 l-5 46 -57 -110 c-37 -73 -51 -108 -40 -103
9 4 32 8 50 8 27 0 32 3 32 22 0 13 11 35 24 50 l23 28 34 -23 c31 -21 21 -24
-22 -7 -11 5 -21 -3 -34 -28 l-19 -35 31 -31 31 -32 14 27 c12 23 22 27 65 30
28 2 64 0 79 -4 28 -7 27 -8 -44 -50 -39 -24 -72 -46 -72 -50 1 -17 19 -33 31
-27 8 4 5 -1 -6 -11 -11 -10 -19 -26 -17 -35 2 -11 -3 -18 -12 -18 -9 0 -16
-9 -16 -20 0 -24 -18 -17 -62 23 -15 14 -55 38 -88 53 -45 20 -62 33 -67 52
-6 24 -7 24 -19 7 -10 -14 -11 -22 -2 -32 16 -20 0 -29 -19 -10 -15 15 -18 14
-39 -8 -35 -38 -78 -104 -113 -172 -22 -45 -43 -70 -71 -88 -22 -14 -40 -28
-40 -31 0 -4 11 1 25 10 13 9 27 16 30 16 3 0 5 -25 5 -56 0 -42 -6 -64 -24
-91 -23 -34 -25 -63 -4 -63 6 0 5 -7 -2 -15 -11 -13 -15 -13 -21 -3 -5 7 -9 8
-9 2 0 -19 12 -23 31 -11 26 16 33 3 13 -27 -9 -15 -14 -29 -11 -33 10 -10 82
23 80 35 -2 7 9 12 25 12 25 -1 26 -2 9 -15 -18 -13 -17 -14 5 -17 22 -4 22
-5 -7 -17 l-30 -13 28 -10 c24 -9 26 -12 15 -26 -11 -14 -10 -15 7 -7 11 4 38
10 60 12 22 2 46 4 53 5 6 1 39 36 72 79 64 82 86 97 120 79 27 -14 38 -2 81
86 42 86 55 171 38 241 -11 47 -14 52 -21 33 -11 -30 -22 -19 -12 12 4 13 7
29 5 37 -1 7 2 10 7 7 5 -3 20 3 33 13 13 10 46 28 73 40 27 11 60 33 73 47
15 17 30 24 41 19 9 -3 13 -3 9 1 -4 4 1 16 10 27 13 15 3 12 -39 -12 -76 -42
-75 -34 1 13 41 25 58 42 56 54 -1 9 6 33 15 52 27 53 36 128 17 136 -8 3 -18
17 -22 31 -6 26 -111 165 -130 172 -5 2 -28 24 -49 48 -43 46 -44 47 -65 34z
m64 -188 c21 -10 35 -24 35 -35 0 -26 -12 -22 -50 17 -38 39 -36 42 15 18z
m147 -112 c18 -16 29 -33 25 -37 -4 -4 -24 9 -45 29 -43 44 -27 50 20 8z m48
-57 c0 -8 -5 -12 -10 -9 -6 4 -8 11 -5 16 9 14 15 11 15 -7z m-245 -134 c3 -5
1 -10 -4 -10 -6 0 -11 5 -11 10 0 6 2 10 4 10 3 0 8 -4 11 -10z m-255 -165
c22 -12 23 -14 7 -20 -17 -7 -47 10 -47 26 0 12 11 11 40 -6z m-90 -21 c0 -8
-4 -14 -10 -14 -5 0 -10 9 -10 21 0 11 5 17 10 14 6 -3 10 -13 10 -21z m35 -4
c3 -5 -1 -10 -9 -10 -9 0 -16 5 -16 10 0 6 4 10 9 10 6 0 13 -4 16 -10z m140
-41 c11 -17 -1 -21 -15 -4 -8 9 -8 15 -2 15 6 0 14 -5 17 -11z m85 -68 l-1
-26 -24 30 c-33 40 -33 61 0 39 16 -11 25 -25 25 -43z m-416 -308 c4 -9 0 -23
-8 -32 -14 -13 -16 -13 -22 2 -7 20 1 47 15 47 5 0 12 -8 15 -17z m192 -116
c11 -11 -19 -8 -36 3 -12 8 -10 9 7 7 12 -2 26 -6 29 -10z"/>
<path d="M4298 1699 c-27 -17 -48 -35 -48 -39 0 -6 61 -58 88 -74 13 -8 112
49 112 64 0 16 -21 22 -35 10 -9 -7 -15 -8 -20 0 -3 5 2 10 12 10 14 0 10 8
-17 30 -19 16 -37 30 -40 30 -3 0 -26 -14 -52 -31z m72 -3 c0 -11 -19 -15 -25
-6 -3 5 1 10 9 10 9 0 16 -2 16 -4z m-56 -35 c3 -5 -1 -11 -9 -15 -15 -6 -29
7 -18 18 9 9 21 8 27 -3z m50 -52 c-6 -10 -39 4 -49 21 -3 5 7 5 25 -1 16 -6
27 -15 24 -20z"/>
<path d="M4573 1699 c-24 -17 -43 -32 -43 -34 0 -1 28 -24 62 -49 60 -45 62
-46 87 -29 49 31 70 48 71 55 0 11 -107 88 -122 88 -7 -1 -32 -14 -55 -31z
m67 11 c0 -5 -5 -10 -11 -10 -5 0 -7 5 -4 10 3 6 8 10 11 10 2 0 4 -4 4 -10z
m60 -65 c-13 -14 -31 -25 -39 -25 -11 1 -6 9 14 25 39 32 55 32 25 0z"/>
<path d="M348 1713 c6 -2 18 -2 25 0 6 3 1 5 -13 5 -14 0 -19 -2 -12 -5z"/>
<path d="M85 1700 c-3 -6 1 -7 9 -4 18 7 21 14 7 14 -6 0 -13 -4 -16 -10z"/>
<path d="M3691 1664 l-55 -37 45 -38 c24 -21 50 -39 58 -39 8 0 37 14 64 32
l50 32 -49 43 c-27 23 -51 43 -54 43 -3 0 -30 -16 -59 -36z m52 -68 c4 -10 0
-12 -14 -9 -10 3 -16 9 -13 14 8 13 21 11 27 -5z"/>
<path d="M3980 1670 c-25 -16 -45 -34 -45 -39 0 -5 20 -25 45 -45 l45 -35 45
26 c69 40 70 41 20 84 -25 21 -49 39 -55 39 -5 0 -30 -14 -55 -30z m54 -82
c-4 -6 -10 -5 -15 3 -14 22 -10 33 6 19 8 -7 12 -17 9 -22z"/>
<path d="M672 1678 c2 -6 10 -13 16 -14 7 -1 8 0 2 3 -5 2 -8 9 -4 14 3 5 0 9
-6 9 -7 0 -10 -5 -8 -12z"/>
<path d="M868 1667 c-21 -12 -38 -27 -38 -33 0 -7 -11 -9 -26 -6 -25 5 -26 3
-20 -24 4 -19 3 -24 -2 -15 -6 8 -17 11 -31 6 -25 -8 -27 3 -3 21 15 12 15 12
-6 7 -29 -7 -35 -18 -18 -32 11 -9 12 -18 3 -40 -9 -25 -18 -30 -81 -42 -39
-7 -75 -12 -80 -11 -4 2 -14 -3 -22 -9 -9 -7 -14 -7 -14 -1 0 13 25 22 61 22
16 0 29 5 29 11 0 13 -94 3 -125 -14 -19 -10 -19 -11 5 -17 22 -5 23 -7 7 -13
-10 -4 -28 -7 -40 -7 -18 0 -19 2 -7 10 12 8 8 10 -15 11 l-30 1 30 8 30 8
-29 1 c-24 1 -27 3 -16 16 10 12 10 15 -1 14 -19 -1 -57 -17 -43 -18 7 -1 14
-8 18 -16 4 -12 0 -14 -17 -10 -12 3 -67 -4 -122 -14 l-100 -19 90 5 c50 2
111 6 137 7 26 2 45 -1 42 -6 -3 -4 -14 -8 -24 -8 -26 0 -50 -10 -50 -22 0 -5
8 -7 18 -4 9 3 24 1 32 -5 13 -9 12 -10 -2 -5 -10 3 -18 1 -18 -5 0 -6 -10 -9
-22 -7 -11 2 -23 -2 -25 -9 -3 -8 6 -9 31 -3 20 4 36 5 36 2 0 -3 5 -1 11 5 6
6 26 7 51 3 30 -6 45 -4 55 6 17 16 73 19 73 4 0 -6 15 -20 33 -31 25 -16 27
-19 8 -14 -16 5 -21 4 -17 -4 4 -6 3 -11 -3 -11 -5 0 -11 5 -13 10 -4 14 -148
-8 -148 -22 0 -5 9 -6 20 -3 11 3 20 2 20 -3 0 -11 -25 -16 -163 -33 -53 -6
-97 -15 -97 -20 0 -13 18 -20 25 -9 3 5 22 10 41 10 32 0 34 -1 23 -21 -9 -17
-13 -19 -20 -8 -7 11 -9 11 -9 -3 0 -9 6 -19 13 -21 6 -3 2 -6 -11 -6 -12 -1
-21 4 -20 11 2 7 -7 14 -19 16 -17 2 -24 -3 -29 -22 -6 -26 -18 -33 -28 -17
-4 5 0 11 6 14 7 2 10 8 6 12 -11 12 -29 -6 -24 -23 4 -13 0 -17 -18 -17 -16
0 -22 4 -18 14 3 8 -4 5 -16 -7 -24 -24 -52 -29 -52 -9 0 9 -11 12 -37 8 l-38
-5 30 -7 c29 -7 29 -7 -7 -8 -21 0 -38 -5 -38 -10 0 -5 15 -8 34 -7 25 2 33 0
29 -10 -3 -9 2 -14 15 -14 24 0 38 16 20 23 -8 4 -7 6 4 6 9 1 19 -5 21 -11 4
-10 7 -10 15 0 6 10 15 10 37 2 25 -9 26 -9 15 5 -10 12 -10 15 1 15 8 0 24 3
37 6 17 5 22 2 23 -12 0 -11 3 -14 6 -6 2 6 16 12 29 12 15 0 23 -4 19 -10 -4
-6 -12 -10 -18 -9 -7 1 -23 -2 -37 -8 -14 -6 -59 -13 -100 -17 -41 -3 -92 -9
-113 -12 -35 -6 -37 -9 -37 -45 0 -45 9 -53 44 -39 19 7 26 6 26 -3 0 -7 3 -8
8 -2 10 14 33 17 154 18 59 1 103 4 97 8 -7 4 -4 9 6 13 20 7 38 -1 30 -15 -3
-5 1 -6 9 -3 9 3 16 9 16 13 0 6 22 10 110 16 30 2 72 7 93 11 24 4 37 3 37
-4 0 -7 9 -8 28 -2 15 5 50 11 78 13 56 4 82 18 108 60 15 22 17 40 13 105 -4
42 -6 94 -7 115 0 28 -4 37 -17 38 -11 0 -13 3 -5 6 15 6 17 119 2 128 -5 3
-10 16 -9 28 1 20 2 20 9 -3 7 -22 8 -22 10 -5 1 11 2 28 1 37 -2 15 35 45 51
40 3 -1 9 5 12 13 7 18 9 19 -36 -8z m-41 -189 c-3 -8 -6 -5 -6 6 -1 11 2 17
5 13 3 -3 4 -12 1 -19z m-37 2 c12 -7 11 -9 -5 -9 -11 0 -40 -2 -64 -4 -39 -4
-42 -2 -26 10 22 15 73 17 95 3z m-136 -19 c3 -5 -20 -11 -52 -14 -31 -3 -76
-10 -98 -15 -30 -6 -48 -5 -65 4 -22 12 -19 13 36 15 33 1 63 1 68 0 4 0 7 4
7 9 0 12 97 13 104 1z m106 -32 c0 -11 -4 -18 -10 -14 -5 3 -7 12 -3 20 7 21
13 19 13 -6z m-110 -8 c0 -10 -26 -9 -36 2 -4 4 2 7 14 7 12 0 22 -4 22 -9z
m-50 -55 c0 -2 -7 -7 -16 -10 -8 -3 -12 -2 -9 4 6 10 25 14 25 6z m-60 -30 c0
-8 6 -17 13 -19 6 -3 2 -6 -11 -6 -13 -1 -20 -5 -17 -11 3 -5 1 -10 -4 -10 -6
0 -11 7 -11 15 0 8 5 15 11 15 8 0 8 5 -1 15 -10 12 -10 15 4 15 9 0 16 -6 16
-14z m-40 -41 c0 -18 -75 -21 -86 -4 -4 8 0 9 15 4 12 -4 21 -2 21 4 0 6 11
11 25 11 16 0 25 -6 25 -15z m-100 -4 c0 -10 -42 -23 -49 -15 -7 6 20 24 37
24 6 0 12 -4 12 -9z m170 -21 c0 -5 -2 -10 -4 -10 -3 0 -8 5 -11 10 -3 6 -1
10 4 10 6 0 11 -4 11 -10z m-104 -17 c-7 -7 -87 -5 -95 3 -2 2 20 4 49 4 29 0
50 -3 46 -7z m-180 -51 c-9 -8 -34 12 -29 24 4 12 8 11 18 -3 8 -10 12 -19 11
-21z m109 18 c-3 -5 -12 -10 -18 -10 -7 0 -6 4 3 10 19 12 23 12 15 0z m65 6
c0 -2 -7 -6 -15 -10 -8 -3 -15 -1 -15 4 0 6 7 10 15 10 8 0 15 -2 15 -4z m197
-12 c-3 -3 -12 -4 -19 -1 -8 3 -5 6 6 6 11 1 17 -2 13 -5z"/>
<path d="M1356 1677 c3 -10 9 -15 12 -12 3 3 0 11 -7 18 -10 9 -11 8 -5 -6z"/>
<path d="M328 1673 c7 -3 16 -2 19 1 4 3 -2 6 -13 5 -11 0 -14 -3 -6 -6z"/>
<path d="M715 1660 c4 -6 11 -8 16 -5 14 9 11 15 -7 15 -8 0 -12 -5 -9 -10z"/>
<path d="M3378 1641 c-25 -16 -48 -34 -52 -39 -3 -6 14 -27 40 -48 l46 -38 45
25 c72 39 74 46 23 90 -25 22 -47 39 -51 39 -3 0 -26 -13 -51 -29z m12 -41 c0
-13 -11 -13 -30 0 -12 8 -11 10 8 10 12 0 22 -4 22 -10z m29 -29 c8 -5 9 -11
3 -15 -5 -3 -15 1 -22 9 -14 16 -3 20 19 6z"/>
<path d="M638 1653 c6 -2 18 -2 25 0 6 3 1 5 -13 5 -14 0 -19 -2 -12 -5z"/>
<path d="M3183 1632 c-23 -15 -45 -30 -49 -34 -10 -10 25 -48 44 -48 18 0 112
59 112 69 0 13 -36 41 -51 40 -8 0 -33 -12 -56 -27z m47 -12 c0 -13 -28 -25
-38 -16 -3 4 0 11 8 16 20 13 30 12 30 0z"/>
<path d="M20 1640 c0 -12 8 -12 35 0 18 8 17 9 -7 9 -16 1 -28 -3 -28 -9z"/>
<path d="M573 1643 c9 -2 23 -2 30 0 6 3 -1 5 -18 5 -16 0 -22 -2 -12 -5z"/>
<path d="M4170 1613 l-54 -36 40 -33 c57 -49 68 -50 125 -14 55 36 55 38 -14
87 l-44 32 -53 -36z m120 -27 c0 -11 -19 -15 -25 -6 -3 5 1 10 9 10 9 0 16 -2
16 -4z m-40 -36 c5 -9 9 -9 14 -1 4 6 13 11 19 11 7 0 -1 -9 -18 -20 -38 -25
-44 -25 -80 4 l-29 24 43 -3 c24 -1 47 -8 51 -15z"/>
<path d="M4440 1609 c-30 -22 -56 -44 -58 -48 -3 -10 102 -91 118 -91 17 0
132 81 128 90 -5 14 -110 90 -122 89 -6 0 -36 -19 -66 -40z"/>
<path d="M508 1613 c7 -3 16 -2 19 1 4 3 -2 6 -13 5 -11 0 -14 -3 -6 -6z"/>
<path d="M3846 1583 l-50 -36 45 -38 c24 -21 50 -39 57 -39 17 0 102 58 102
70 0 9 -88 80 -99 80 -3 0 -28 -17 -55 -37z m64 17 c0 -5 -5 -10 -11 -10 -5 0
-7 5 -4 10 3 6 8 10 11 10 2 0 4 -4 4 -10z m-5 -93 c-12 -7 -22 -4 -34 8 -15
17 -15 17 2 12 9 -4 17 -2 17 5 0 7 6 6 16 -3 14 -11 14 -13 -1 -22z"/>
<path d="M3558 1579 c-27 -17 -48 -34 -48 -38 0 -8 86 -81 96 -81 16 0 104 63
103 74 0 6 -14 22 -31 35 -22 18 -32 21 -38 11 -5 -8 -9 -9 -14 -1 -4 6 -2 11
4 11 6 0 8 5 5 10 -10 16 -27 12 -77 -21z m42 -64 c11 -13 10 -14 -4 -9 -9 3
-16 10 -16 15 0 13 6 11 20 -6z"/>
<path d="M587 1583 c-14 -13 -6 -33 13 -33 13 0 20 7 20 20 0 19 -20 27 -33
13z m23 -7 c0 -3 -4 -8 -10 -11 -5 -3 -10 -1 -10 4 0 6 5 11 10 11 6 0 10 -2
10 -4z"/>
<path d="M670 1575 c0 -8 6 -15 14 -15 22 0 28 17 10 24 -22 9 -24 8 -24 -9z"/>
<path d="M3242 1557 c-28 -18 -52 -37 -52 -43 0 -12 75 -84 88 -84 4 0 31 16
60 36 59 39 59 41 -7 93 l-36 29 -53 -31z m68 -7 c0 -5 -5 -10 -11 -10 -5 0
-7 5 -4 10 3 6 8 10 11 10 2 0 4 -4 4 -10z m-60 -42 c0 -13 -23 -5 -28 10 -2
7 2 10 12 6 9 -3 16 -11 16 -16z m40 -30 c0 -13 -23 -5 -28 10 -2 7 2 10 12 6
9 -3 16 -11 16 -16z"/>
<path d="M396 1570 c-18 -6 -18 -7 4 -13 14 -4 29 -1 35 5 7 8 6 9 -2 4 -6 -3
-13 -2 -15 3 -1 4 -12 5 -22 1z"/>
<path d="M3042 1545 c-29 -18 -55 -35 -59 -38 -9 -10 27 -47 45 -47 18 0 122
59 122 69 0 8 -27 34 -45 43 -5 3 -34 -9 -63 -27z m38 -19 c-10 -13 -40 -12
-40 1 0 3 7 3 15 0 8 -4 17 -2 20 3 4 6 9 10 12 10 3 0 0 -6 -7 -14z"/>
<path d="M245 1550 c-13 -6 -2 -7 30 -3 28 3 52 7 54 9 9 8 -65 2 -84 -6z"/>
<path d="M506 1550 c-15 -5 -16 -9 -7 -14 7 -5 18 -3 24 3 14 14 6 20 -17 11z"/>
<path d="M4043 1529 c-24 -17 -43 -35 -43 -42 1 -12 80 -77 94 -77 9 0 106 64
106 70 0 9 -96 80 -106 80 -5 -1 -28 -14 -51 -31z m107 -13 c0 -3 -4 -8 -10
-11 -5 -3 -10 -1 -10 4 0 6 5 11 10 11 6 0 10 -2 10 -4z m-42 -50 c7 -4 21 -5
30 -1 11 4 13 3 7 -3 -21 -20 -63 -22 -84 -4 l-22 17 28 0 c15 0 34 -4 41 -9z"/>
<path d="M4046 1340 c-169 -114 -313 -213 -319 -219 -8 -8 2 -23 38 -56 28
-24 58 -47 67 -50 12 -4 113 61 320 205 167 115 307 217 313 225 10 15 11 15
-70 74 l-41 29 -308 -208z"/>
<path d="M260 1533 c-46 -8 -42 -20 5 -13 25 4 48 10 52 13 7 7 -16 7 -57 0z"/>
<path d="M650 1530 c0 -6 11 -8 28 -4 39 10 40 14 4 14 -18 0 -32 -5 -32 -10z"/>
<path d="M120 1520 c0 -5 5 -10 10 -10 6 0 10 5 10 10 0 6 -4 10 -10 10 -5 0
-10 -4 -10 -10z"/>
<path d="M3428 1497 c-26 -18 -48 -37 -48 -44 0 -6 20 -28 45 -49 l45 -37 55
37 c32 21 52 41 49 48 -5 12 -87 79 -95 77 -2 0 -25 -15 -51 -32z m72 3 c0 -5
-8 -10 -17 -10 -15 0 -16 2 -3 10 19 12 20 12 20 0z m45 -40 c-3 -5 -10 -10
-16 -10 -5 0 -9 5 -9 10 0 6 7 10 16 10 8 0 12 -4 9 -10z m-70 -31 c10 -15 -1
-23 -20 -15 -9 3 -13 10 -10 16 8 13 22 13 30 -1z"/>
<path d="M3718 1499 c-27 -17 -48 -35 -48 -39 0 -4 21 -25 46 -45 l46 -38 32
17 c17 9 42 26 56 37 l25 20 -45 39 c-25 22 -49 40 -55 40 -5 0 -31 -14 -57
-31z m82 1 c0 -5 -10 -10 -22 -9 -22 0 -22 1 -3 9 11 5 21 9 23 9 1 1 2 -3 2
-9z m-29 -69 c6 9 9 10 9 2 0 -6 -5 -15 -11 -19 -15 -9 -33 12 -23 28 7 10 9
9 12 -6 3 -15 6 -16 13 -5z"/>
<path d="M252 1508 c-29 -5 -50 -13 -47 -18 5 -9 79 5 104 20 19 11 13 11 -57
-2z"/>
<path d="M3090 1463 l-54 -36 48 -43 48 -44 49 27 c78 42 80 48 28 93 -24 22
-48 39 -54 39 -5 0 -35 -16 -65 -36z m11 -36 c-1 -12 -15 -9 -19 4 -3 6 1 10
8 8 6 -3 11 -8 11 -12z m45 -44 c-7 -7 -26 7 -26 19 0 6 6 6 15 -2 9 -7 13
-15 11 -17z"/>
<path d="M2901 1458 c-58 -34 -70 -51 -51 -73 20 -24 51 -18 108 20 28 20 52
37 52 38 0 2 -13 13 -28 24 l-29 21 -52 -30z"/>
<path d="M70 1470 c0 -5 -10 -10 -22 -10 -18 0 -20 -2 -9 -9 8 -5 20 -7 27 -4
16 6 27 33 14 33 -6 0 -10 -4 -10 -10z"/>
<path d="M3911 1441 l-53 -36 47 -42 c26 -24 52 -43 58 -43 7 0 34 17 61 36
l48 36 -20 21 c-18 18 -23 19 -39 6 -16 -13 -17 -12 -5 3 11 14 9 19 -15 36
l-28 19 -54 -36z m60 -84 c-7 -7 -15 -6 -25 3 -22 17 -9 32 16 19 14 -8 17
-14 9 -22z"/>
<path d="M120 1460 c0 -5 9 -10 21 -10 11 0 17 5 14 10 -3 6 -13 10 -21 10 -8
0 -14 -4 -14 -10z"/>
<path d="M260 1450 c0 -5 5 -10 11 -10 5 0 7 5 4 10 -3 6 -8 10 -11 10 -2 0
-4 -4 -4 -10z"/>
<path d="M295 1450 c-3 -5 -1 -10 4 -10 6 0 11 5 11 10 0 6 -2 10 -4 10 -3 0
-8 -4 -11 -10z"/>
<path d="M1 1447 c2 -1 13 -9 24 -17 19 -14 19 -14 6 3 -7 9 -18 17 -24 17 -6
0 -8 -1 -6 -3z"/>
<path d="M3585 1416 c-27 -19 -50 -38 -50 -43 0 -12 83 -83 97 -83 8 0 89 51
108 68 5 4 -91 93 -100 91 -3 0 -27 -15 -55 -33z m45 -83 c0 -13 -3 -13 -15
-3 -8 7 -12 16 -9 21 8 13 24 1 24 -18z"/>
<path d="M138 1433 c7 -3 16 -2 19 1 4 3 -2 6 -13 5 -11 0 -14 -3 -6 -6z"/>
<path d="M3288 1408 c-27 -16 -48 -36 -48 -43 0 -7 20 -29 46 -50 l45 -37 55
36 c29 20 54 40 54 45 0 5 -12 19 -26 30 -20 16 -30 18 -40 10 -15 -12 -34 -4
-34 14 0 8 3 7 9 -2 5 -7 14 -10 20 -6 9 5 9 10 0 21 -16 19 -27 17 -81 -18z
m43 -74 c12 -14 11 -16 -5 -13 -11 2 -21 10 -24 17 -5 17 13 15 29 -4z"/>
<path d="M0 1409 c0 -14 27 -16 49 -5 21 12 21 13 -13 12 -20 -1 -36 -4 -36
-7z"/>
<path d="M1140 1406 c0 -2 7 -7 16 -10 8 -3 12 -2 9 4 -6 10 -25 14 -25 6z"/>
<path d="M2955 1377 c-28 -18 -50 -37 -50 -42 0 -6 19 -28 42 -49 l43 -38 42
25 c90 53 89 50 38 96 -25 22 -50 40 -55 41 -6 0 -33 -15 -60 -33z m15 -37 c0
-5 -7 -10 -15 -10 -8 0 -15 5 -15 10 0 6 7 10 15 10 8 0 15 -4 15 -10z m30
-40 c0 -5 -7 -7 -15 -4 -8 4 -12 10 -9 15 6 11 24 2 24 -11z"/>
<path d="M2740 1359 l-62 -40 23 -25 c12 -13 26 -24 31 -24 11 0 128 73 128
81 0 3 -13 15 -29 27 l-29 21 -62 -40z"/>
<path d="M3782 1354 c-29 -19 -52 -38 -52 -43 0 -10 85 -81 97 -81 4 0 32 16
61 36 60 40 59 41 -11 91 l-44 32 -51 -35z m73 6 c3 -5 -1 -10 -10 -10 -9 0
-13 5 -10 10 3 6 8 10 10 10 2 0 7 -4 10 -10z m45 -40 c0 -5 -4 -10 -10 -10
-5 0 -10 5 -10 10 0 6 5 10 10 10 6 0 10 -4 10 -10z m-66 -35 c3 -10 -1 -15
-14 -15 -23 0 -35 16 -18 23 21 9 26 8 32 -8z"/>
<path d="M106 1372 c-2 -4 13 -6 35 -4 21 2 39 6 39 8 0 7 -69 4 -74 -4z"/>
<path d="M3442 1323 l-53 -36 38 -39 c20 -21 45 -40 54 -43 20 -7 119 51 119
68 0 12 -87 88 -99 86 -3 0 -30 -16 -59 -36z m89 -11 c-7 -2 -18 1 -23 6 -8 8
-4 9 13 5 13 -4 18 -8 10 -11z m-46 -52 c-3 -6 1 -7 9 -4 9 3 16 1 16 -4 0
-18 -20 -24 -35 -12 -15 13 -11 30 6 30 6 0 7 -4 4 -10z"/>
<path d="M360 1338 c0 -8 79 0 89 9 3 2 -16 3 -42 2 -26 -1 -47 -6 -47 -11z"/>
<path d="M3141 1314 l-53 -36 33 -35 c57 -58 64 -59 125 -19 30 20 54 40 54
45 0 10 -85 81 -97 81 -4 0 -32 -16 -62 -36z m63 -74 c-6 -6 -19 -8 -29 -4
-17 7 -17 8 1 21 21 15 45 0 28 -17z"/>
<path d="M103 1323 c9 -2 23 -2 30 0 6 3 -1 5 -18 5 -16 0 -22 -2 -12 -5z"/>
<path d="M1544 1314 c-18 -14 -18 -15 4 -4 12 6 22 13 22 15 0 8 -5 6 -26 -11z"/>
<path d="M2801 1284 l-54 -36 44 -44 c24 -24 47 -44 52 -44 5 0 36 16 69 36
l60 36 -43 44 c-24 24 -50 44 -59 43 -8 0 -39 -16 -69 -35z"/>
<path d="M71 1293 c-1 -7 7 -17 17 -23 14 -10 13 -11 -10 -7 -16 2 -28 1 -28
-3 0 -12 44 -20 50 -10 3 5 24 14 45 20 l40 10 -42 -4 c-24 -2 -43 0 -43 6 0
5 -4 7 -9 4 -5 -4 -12 0 -14 6 -4 10 -6 10 -6 1z"/>
<path d="M2583 1265 c-29 -19 -53 -39 -53 -43 0 -13 35 -42 49 -42 8 0 40 16
73 36 l59 36 -22 24 c-29 31 -44 30 -106 -11z m47 -9 c0 -2 -7 -7 -16 -10 -8
-3 -12 -2 -9 4 6 10 25 14 25 6z"/>
<path d="M3645 1264 c-27 -19 -51 -38 -53 -43 -3 -10 82 -81 99 -81 16 0 109
60 109 70 0 8 -94 91 -101 89 -2 0 -26 -16 -54 -35z m75 -4 c0 -5 -2 -10 -4
-10 -3 0 -8 5 -11 10 -3 6 -1 10 4 10 6 0 11 -4 11 -10z m47 -36 c-3 -3 -12
-4 -19 -1 -8 3 -5 6 6 6 11 1 17 -2 13 -5z m-83 -29 c-5 -11 -2 -13 12 -8 12
4 15 3 10 -5 -9 -15 -33 -16 -41 -2 -7 12 2 30 15 30 5 0 7 -7 4 -15z"/>
<path d="M3 1254 c0 -7 6 -10 14 -7 17 7 17 20 0 20 -8 0 -14 -6 -14 -13z"/>
<path d="M3305 1234 c-27 -19 -51 -38 -53 -42 -3 -10 83 -82 99 -82 21 0 109
61 109 75 0 21 -19 28 -35 15 -11 -9 -15 -9 -15 -1 0 6 6 11 13 11 6 0 -3 14
-21 30 -18 17 -36 30 -40 29 -4 0 -29 -16 -57 -35z m79 -6 c-3 -4 -11 -5 -19
-1 -21 7 -19 12 4 10 11 0 18 -5 15 -9z m-34 -68 c8 -5 12 -11 9 -14 -3 -3
-14 1 -25 9 -21 16 -8 20 16 5z"/>
<path d="M3003 1227 c-29 -17 -53 -37 -53 -43 0 -15 76 -84 93 -84 7 0 36 16
66 36 l53 36 -43 44 c-24 24 -48 44 -54 44 -5 -1 -34 -15 -62 -33z m53 -75 c1
-7 0 -8 -3 -2 -2 5 -9 10 -14 10 -6 0 -7 -4 -4 -10 3 -5 1 -10 -4 -10 -12 0
-14 13 -4 24 9 9 26 2 29 -12z"/>
<path d="M2657 1194 c-39 -24 -55 -40 -50 -48 14 -22 80 -76 94 -76 8 0 39 16
68 36 l54 37 -46 43 c-25 24 -50 44 -54 44 -5 0 -34 -16 -66 -36z"/>
<path d="M1226 1200 c-11 -3 -15 -9 -10 -13 10 -6 42 9 34 16 -3 3 -14 1 -24
-3z"/>
<path d="M3507 1174 c-32 -20 -57 -39 -57 -43 0 -4 15 -21 33 -37 66 -61 62
-60 122 -20 30 20 55 40 55 45 0 5 -22 27 -48 50 l-49 40 -56 -35z m123 -40
c0 -8 -19 -13 -24 -6 -3 5 1 9 9 9 8 0 15 -2 15 -3z m-72 -33 c11 -7 11 -9 -1
-14 -16 -6 -27 0 -27 15 0 10 11 10 28 -1z"/>
<path d="M1270 1189 c0 -5 5 -7 10 -4 6 3 10 8 10 11 0 2 -4 4 -10 4 -5 0 -10
-5 -10 -11z"/>
<path d="M985 1170 c3 -5 11 -10 16 -10 23 0 139 -60 139 -72 0 -7 11 -14 25
-14 45 -3 22 19 -64 64 -79 40 -130 54 -116 32z"/>
<path d="M3163 1143 c-29 -20 -53 -41 -53 -48 0 -7 21 -30 46 -50 l46 -38 32
17 c17 9 45 28 61 41 l30 25 -50 45 c-27 24 -52 44 -55 44 -3 0 -29 -16 -57
-36z m51 -84 c-8 -14 -24 -10 -24 6 0 9 6 12 15 9 8 -4 12 -10 9 -15z"/>
<path d="M2813 1108 c-62 -40 -90 -64 -85 -72 4 -7 26 -29 49 -50 l42 -38 96
62 c52 34 95 65 95 68 0 11 -84 92 -95 91 -5 0 -52 -28 -102 -61z m41 -87 c3
-5 -3 -11 -15 -14 -16 -4 -18 -3 -8 9 13 16 16 17 23 5z"/>
<path d="M13 1153 c9 -2 23 -2 30 0 6 3 -1 5 -18 5 -17 0 -22 -2 -12 -5z"/>
<path d="M2036 1124 c-6 -18 -16 -36 -41 -74 -12 -19 -7 -50 12 -72 8 -9 12
-22 8 -28 -4 -7 0 -10 11 -8 14 2 20 -4 22 -24 2 -16 9 -28 17 -28 7 0 23 -9
36 -19 l24 -19 -53 -32 c-28 -18 -52 -38 -52 -44 0 -7 3 -8 8 -1 15 21 56 32
82 23 l25 -9 -25 -19 c-34 -26 -20 -25 27 2 29 17 35 18 24 5 -16 -20 -2 -23
18 -4 11 10 12 8 6 -10 -4 -17 -3 -22 7 -18 7 3 20 0 28 -5 13 -9 12 -12 -5
-26 -19 -15 -19 -15 7 -9 20 5 32 1 50 -17 12 -12 22 -26 21 -29 -1 -4 9 -10
22 -13 14 -4 25 -13 25 -20 0 -8 7 -17 16 -20 12 -5 15 -14 10 -37 -5 -27 -3
-30 12 -24 29 11 36 11 38 -2 1 -7 2 -17 3 -23 0 -5 8 -10 16 -10 8 0 15 -5
15 -10 0 -6 7 -13 16 -17 18 -7 82 -66 74 -69 -3 -1 25 -31 63 -67 37 -36 67
-63 67 -60 0 4 9 -4 20 -17 l21 -24 -38 -39 c-36 -37 -37 -38 -10 -26 21 10
33 10 46 2 11 -7 23 -8 34 -1 19 10 57 2 57 -13 0 -5 9 -18 20 -29 11 -11 20
-26 20 -34 0 -8 8 -16 18 -19 14 -3 13 -6 -8 -15 -24 -10 -24 -11 10 -11 27
-1 41 -8 60 -31 l25 -30 125 0 125 0 -235 232 c-129 128 -388 384 -576 571
-277 275 -342 336 -348 321z"/>
<path d="M3358 1077 c-26 -18 -48 -37 -48 -43 0 -16 77 -84 95 -84 16 0 115
61 115 71 0 12 -89 89 -102 88 -7 0 -34 -15 -60 -32z m127 -37 c-3 -5 -12 -10
-18 -10 -7 0 -6 4 3 10 19 12 23 12 15 0z m-68 -56 c-3 -3 -13 0 -21 9 -8 8
-12 18 -9 21 4 4 14 0 22 -9 8 -8 12 -17 8 -21z"/>
<path d="M3607 1043 l-68 -46 42 -43 c73 -74 79 -75 159 -20 39 27 70 52 70
56 0 13 -106 100 -121 99 -8 0 -45 -21 -82 -46z"/>
<path d="M2958 1010 c-60 -39 -108 -77 -108 -84 0 -21 87 -89 105 -83 8 4 62
38 121 78 l107 72 -49 43 c-27 24 -53 43 -59 43 -5 0 -58 -31 -117 -69z m86
-65 c-10 -8 -23 -15 -28 -15 -6 0 -1 7 10 15 10 8 23 15 28 15 6 0 1 -7 -10
-15z m-54 -39 c0 -2 -7 -6 -15 -10 -8 -3 -15 -1 -15 4 0 6 7 10 15 10 8 0 15
-2 15 -4z"/>
<path d="M5847 1007 l-17 -32 20 24 c17 20 26 41 18 41 -2 0 -11 -15 -21 -33z"/>
<path d="M3118 919 c-82 -55 -148 -103 -148 -108 0 -10 93 -91 105 -91 3 0 74
46 157 102 l150 102 -50 48 c-28 26 -54 48 -59 47 -4 0 -74 -45 -155 -100z m2
-113 c0 -9 -32 -36 -42 -36 -7 0 -3 9 8 19 18 19 34 26 34 17z"/>
<path d="M3457 942 c-31 -20 -57 -42 -57 -48 0 -13 105 -104 120 -104 13 0 96
55 105 71 8 12 -5 29 -65 79 l-46 39 -57 -37z m3 -36 c0 -3 -4 -8 -10 -11 -5
-3 -10 -1 -10 4 0 6 5 11 10 11 6 0 10 -2 10 -4z m105 -51 c-16 -13 -37 -24
-45 -24 -9 0 -4 9 15 24 17 14 37 25 45 25 9 0 4 -9 -15 -25z"/>
<path d="M3965 867 c-23 -35 -25 -120 -3 -144 29 -32 222 -420 232 -468 7 -31
19 -55 27 -55 6 0 8 -9 4 -20 -3 -11 -3 -25 2 -32 11 -18 33 -80 33 -96 0 -10
-5 -10 -21 -2 -11 7 -44 12 -72 13 -47 2 -52 4 -55 26 -3 20 0 23 17 18 19 -5
21 -1 21 50 0 33 4 52 10 48 6 -4 7 2 1 17 -4 13 -6 28 -4 35 2 6 -5 14 -16
18 -11 3 -31 21 -43 38 -12 18 -33 40 -45 50 -13 10 -21 22 -18 27 9 14 -17
59 -37 65 -10 4 -18 12 -18 20 0 7 -7 16 -16 19 -9 4 -13 13 -10 24 4 11 -4
28 -19 45 -14 15 -21 27 -16 27 13 0 3 29 -16 52 -8 9 -12 21 -9 27 7 10 -34
80 -47 81 -16 0 -37 -71 -37 -127 0 -32 6 -84 14 -116 11 -48 11 -57 0 -53
-17 6 44 -140 78 -185 13 -19 53 -82 87 -141 35 -60 69 -108 77 -108 8 0 14
-4 14 -10 0 -6 48 -10 125 -10 69 0 125 4 125 9 0 5 -7 14 -15 21 -8 7 -15 18
-15 24 0 6 14 -4 30 -21 28 -31 34 -33 95 -33 51 0 65 3 65 15 0 8 4 15 9 15
5 0 11 -7 15 -15 4 -12 25 -15 101 -15 90 0 96 1 90 19 -3 11 -1 22 4 25 5 4
9 57 9 119 0 107 -2 113 -26 135 -19 19 -27 21 -33 10 -5 -7 -9 -16 -9 -20 0
-4 -18 -1 -40 8 -46 19 -70 8 -70 -31 0 -43 -21 -85 -43 -86 -40 -2 -52 2 -70
26 -10 14 -33 27 -51 30 -28 6 -33 11 -34 37 0 16 -7 40 -15 52 -17 25 -20 95
-5 113 7 9 2 14 -19 19 -25 6 -73 44 -73 59 0 3 7 5 16 5 8 0 13 4 9 9 -3 6 2
14 12 19 15 9 13 12 -17 25 -19 9 -29 16 -22 16 24 2 -16 60 -56 81 -64 34
-72 44 -72 89 0 34 -4 43 -24 52 -14 7 -22 17 -19 25 3 9 -2 14 -17 14 -13 0
-31 9 -41 21 l-18 20 -16 -24z m135 -309 c0 -7 18 -42 40 -78 40 -65 90 -181
90 -207 0 -36 -23 0 -84 130 -62 133 -80 187 -56 172 6 -3 10 -11 10 -17z m25
-408 c3 -5 -1 -10 -9 -10 -9 0 -16 5 -16 10 0 6 4 10 9 10 6 0 13 -4 16 -10z
m385 -79 c0 -12 -36 -15 -43 -3 -3 4 -3 19 0 34 l5 28 19 -24 c11 -13 19 -29
19 -35z"/>
<path d="M3313 845 c-28 -19 -55 -39 -58 -46 -8 -12 93 -108 115 -109 17 0
120 66 120 78 0 7 -114 112 -122 112 -2 0 -27 -16 -55 -35z m120 -76 c-12 -4
-24 -12 -28 -18 -10 -17 -45 -33 -45 -21 0 13 73 59 84 52 5 -3 0 -9 -11 -13z"/>
<path d="M4429 803 c-17 -42 -4 -204 25 -317 27 -106 43 -136 52 -98 7 25 24
30 24 7 0 -8 4 -15 8 -15 12 0 32 47 32 75 0 13 5 25 11 27 8 3 6 9 -4 20 -17
16 -40 98 -28 98 3 0 1 4 -6 8 -6 4 -13 21 -16 39 -3 18 -12 46 -20 63 -13 25
-13 30 -1 30 8 0 14 6 14 13 0 14 -60 77 -73 77 -4 0 -12 -12 -18 -27z"/>
<path d="M3157 739 c-32 -22 -56 -46 -54 -52 2 -6 29 -33 60 -60 l56 -50 50
32 c83 53 83 55 15 116 -32 30 -61 54 -64 54 -3 0 -31 -18 -63 -40z m83 -99
c0 -5 -8 -10 -17 -10 -15 0 -16 2 -3 10 19 12 20 12 20 0z"/>
<path d="M6240 695 c-7 -8 -18 -15 -25 -15 -6 0 -16 -8 -21 -18 -5 -10 -38
-45 -74 -78 -177 -160 -223 -200 -239 -206 -23 -8 -106 -89 -114 -112 -4 -10
-13 -16 -21 -13 -9 4 -21 -5 -31 -21 -30 -46 -149 -152 -178 -159 -16 -3 -31
-13 -34 -22 -2 -9 -9 -24 -14 -33 -9 -17 13 -18 381 -18 l390 0 0 80 c0 89 -3
92 -64 61 -21 -11 -44 -17 -51 -15 -7 3 -16 1 -20 -5 -8 -15 -42 -14 -51 1 -5
7 -2 9 9 5 12 -4 14 0 11 19 -3 16 -1 23 6 19 5 -3 10 -13 10 -21 0 -15 9 -18
27 -6 6 4 10 25 8 52 -2 24 1 50 7 57 5 7 7 17 3 23 -5 7 -11 5 -20 -7 -10
-14 -16 -15 -27 -5 -12 9 -13 24 -7 69 6 47 5 61 -8 76 -16 16 -15 19 4 39
l21 21 59 -42 c32 -22 64 -41 71 -41 9 0 12 43 12 165 0 91 -2 165 -4 165 -2
0 -9 -7 -16 -15z"/>
<path d="M4568 638 c12 -12 24 -19 28 -15 10 10 -16 37 -34 37 -13 0 -12 -4 6
-22z"/>
<path d="M700 505 c-7 -8 -8 -15 -2 -15 5 0 15 7 22 15 7 8 8 15 2 15 -5 0
-15 -7 -22 -15z"/>
<path d="M3688 453 c-22 -50 -14 -198 15 -318 15 -60 31 -116 36 -123 6 -9 38
-12 124 -10 l116 3 -39 62 c-22 34 -44 64 -50 68 -5 3 -10 19 -10 35 0 16 -4
32 -10 35 -5 3 -10 -2 -10 -12 -1 -17 -1 -17 -11 0 -5 9 -16 17 -23 17 -18 0
-46 33 -46 53 0 10 -5 27 -12 40 -6 12 -15 30 -20 40 -5 10 -6 32 -3 48 5 20
2 34 -9 45 -9 8 -16 22 -16 30 0 24 -20 16 -32 -13z"/>
<path d="M4830 371 c-8 -15 -5 -33 11 -73 11 -29 23 -55 26 -58 6 -6 -8 72
-15 85 -4 5 -5 22 -3 37 3 33 -4 36 -19 9z"/>
<path d="M1465 270 c-3 -5 3 -10 14 -10 11 0 23 5 26 10 3 6 -3 10 -14 10 -11
0 -23 -4 -26 -10z"/>
<path d="M4735 254 c5 -11 10 -38 13 -61 2 -23 11 -48 20 -55 13 -11 15 -10 9
12 -4 14 -7 42 -7 62 0 28 -5 40 -22 49 -19 10 -20 9 -13 -7z"/>
<path d="M1485 218 c-22 -11 -42 -24 -45 -27 -3 -4 -18 -17 -34 -29 -20 -15
-24 -22 -12 -22 9 0 16 3 16 8 0 4 34 18 75 31 41 13 75 27 75 30 0 9 -22 31
-29 31 -4 -1 -24 -10 -46 -22z"/>
<path d="M1610 232 c-35 -5 -50 -22 -19 -22 24 0 58 16 49 22 -3 2 -16 2 -30
0z"/>
<path d="M1698 223 c6 -2 18 -2 25 0 6 3 1 5 -13 5 -14 0 -19 -2 -12 -5z"/>
<path d="M1605 173 c-106 -14 -214 -65 -280 -132 l-39 -41 372 0 c372 0 373 0
362 20 -29 54 -178 133 -280 149 -65 11 -80 11 -135 4z"/>
<path d="M2165 160 c-3 -5 -1 -27 4 -47 6 -21 13 -55 16 -76 l6 -37 104 0 c58
0 105 4 105 8 0 18 -121 123 -162 142 -49 22 -64 24 -73 10z"/>
<path d="M2029 73 c6 -12 11 -33 11 -47 0 -22 4 -26 30 -26 25 0 30 4 29 23 0
12 -3 17 -5 10 -3 -7 -19 3 -40 25 -22 24 -31 29 -25 15z"/>
<path d="M2877 34 c-8 -8 1 -24 14 -24 5 0 9 7 9 15 0 15 -12 20 -23 9z"/>
</g>
</svg>
